<?xml version="1.0" encoding="utf-8"?>
<!-- Generator: Adobe Illustrator 24.0.0, SVG Export Plug-In . SVG Version: 6.00 Build 0)  -->
<svg version="1.0" id="Layer_1" xmlns="http://www.w3.org/2000/svg" xmlns:xlink="http://www.w3.org/1999/xlink" x="0px" y="0px"
	 viewBox="0 0 385.7 490.4" style="enable-background:new 0 0 385.7 490.4;" xml:space="preserve">
<style type="text/css">
	.st0{fill:#FCBF10;}
	.st1{fill:#2E2F5B;}
	.st2{fill:#C9952C;}
	.st3{fill:#FFFFFF;}
	.st4{fill:#D4D4D6;stroke:#BFBFBF;stroke-miterlimit:10;}
	.st5{fill:#9E9E9E;}
	.st6{fill:#F4F4F4;}
	.st7{fill:none;stroke:#E5E5E5;stroke-width:0.5;stroke-miterlimit:10;}
	.st8{opacity:0.6514;fill:#FFFFFF;}
	.st9{fill:#E2E2E2;}
	.st10{fill:#CE1344;}
	.st11{fill:#ED2551;}
	.st12{fill:#EAB01F;}
	.st13{fill:#E0A41E;}
	.st14{opacity:0.7989;}
	.st15{fill:none;stroke:#282748;stroke-linejoin:round;stroke-miterlimit:10;}
	.st16{opacity:0.1085;fill:#282748;}
	.st17{opacity:0.5749;}
	.st18{fill:none;stroke:#282748;stroke-width:0.75;stroke-linejoin:round;stroke-miterlimit:10;}
	.st19{fill:none;stroke:#000000;stroke-width:0.75;stroke-linecap:round;stroke-linejoin:round;stroke-miterlimit:10;}
	.st20{fill:#282748;stroke:#FFFFFF;stroke-width:0.75;stroke-miterlimit:10;}
	.st21{opacity:0.1044;fill:#282748;}
	.st22{fill:none;stroke:#282748;stroke-linecap:round;stroke-miterlimit:10;}
	.st23{opacity:0.1607;}
	.st24{fill:#282748;}
	.st25{fill:none;stroke:#282748;stroke-miterlimit:10;}
	.st26{opacity:0.1554;}
</style>
<g>
	<path class="st0" d="M90.5,432.8c0,0-12.4,20-13.3,27.6l11.6-8.9l-4,21.8l15.6-15.1v13.3c0,0,22.7-27.1,25.8-39.5
		C129.2,419.4,99.8,423,90.5,432.8z"/>
	<path class="st0" d="M198,432.8c0,0,12.4,20,13.3,27.6l-11.6-8.9l4,21.8l-15.6-15.1v13.3c0,0-22.7-27.1-25.8-39.5
		C159.4,419.4,188.7,423,198,432.8z"/>
	<path class="st1" d="M75.5,232.4c0,0,1.6-54.7,54.8-63.7s74.1,21.6,78.8,31.1c4.7,9.5,7.3,54.7,5.2,64.7c-2.1,10-1,103.2-1,110.5
		c0,5,4.2,33.3-6.2,51.5c-5,8.7-15.4,10.2-27.2,14.8c-12.3,4.8-25,0.6-37.2,1.1c-24.3,1.1-44.8-6.4-44.8-6.4s-8.6,0.1-15.6-9.9
		c-6.6-9.4-11.6-28.3-12.1-45.9c-1-36.3,3.7-110,3.7-114.8S75,239.7,75.5,232.4z"/>
	<path class="st0" d="M121.3,245.7c2.6,1.9,21.2,11,24.1,11.3c0,0,1.6,0.9,4.4,0.1c0,0,12.9-6.6,22.7-13.3l-0.8-0.3
		c-4.1-1.1-11.4-4.9-11.4-4.9c-3.1-2.2-7.7-4.6-10.6-6c-1.6-0.8-3.4-0.8-5,0c-2.8,1.3-7.3,3.6-9.8,5.7
		C130.5,241.7,121.3,245.7,121.3,245.7z"/>
	<g>
		<path class="st2" d="M172.5,243.8c-2.1,1.2-4.2,2.2-6.3,3.3c-2.1,1-4.2,2.1-6.4,3c-2.2,0.9-4.4,1.8-6.5,2.8c-2.2,1-4.3,2-6.4,3.1
			l-0.1,0.1l-0.1,0c-2.1-0.7-4.3-1.5-6.4-2.3c-2.1-0.8-4.3-1.6-6.4-2.5c-2.1-0.8-4.2-1.7-6.3-2.6c-2.1-0.9-4.2-1.8-6.2-2.8l0-0.1
			c2.2,0.7,4.3,1.4,6.5,2.2c2.1,0.8,4.3,1.5,6.4,2.4c2.1,0.8,4.2,1.7,6.3,2.6c2.1,0.9,4.2,1.7,6.3,2.7l-0.2,0
			c2.2-0.9,4.4-1.8,6.5-2.9c2.1-1,4.2-2.1,6.3-3.2c2.1-1.1,4.3-2,6.5-3C168,245.4,170.2,244.5,172.5,243.8L172.5,243.8z"/>
	</g>
	<circle class="st3" cx="169.5" cy="218.2" r="9.6"/>
	<circle class="st3" cx="123.6" cy="218.2" r="9.6"/>
	<circle cx="125.4" cy="214.8" r="5"/>
	<circle cx="171.8" cy="214.8" r="5"/>
	<path class="st3" d="M91.3,305.7c0,0-2.3-35.6,19.6-35.6s31.5,11.4,57.2,1.8c25.7-9.6,33,12.3,33,12.3s2.5,77.5-2.9,115.3
		c-3.6,25-2.3,36.1-18.3,41.9c-18.2,6.6-37.1-2-53.4,0.9c0,0-18.6-0.2-25.3-5.4c-6.7-5.3-10.8-22.5-8.2-48.5
		C95.6,362.4,93.6,310.4,91.3,305.7z"/>
	<path class="st4" d="M40.5,300.2l85.8,23.3c3.8,1,5.9,5,4.8,8.7L108.3,407l-92.9-32.5L32,305.3C32.9,301.5,36.7,299.2,40.5,300.2z"
		/>
	<path class="st1" d="M77.3,265.7c0,0-11.1,12.4-17.6,34.3c-6.9,23.3-12.6,40.8-17.9,52.2c0,0,26.8-2.9,41.8-31.7
		C98.6,291.8,77.3,265.7,77.3,265.7z"/>
	<path class="st5" d="M17,375.1l89.5,31.3c0.9,0.3,1.4,1.4,1.1,2.3l-1.5,3.7c-0.3,0.9-1.3,1.3-2.2,1l-89.3-31.9
		c-0.9-0.3-1.4-1.4-1-2.3l1.2-3.1C15.1,375.2,16.1,374.7,17,375.1z"/>
	<g>
		
			<image style="overflow:visible;opacity:6.000000e-02;" width="312" height="408" xlink:href="76F175BAA9A9B71F.png"  transform="matrix(0.24 0 0 0.24 183.2433 262.7343)">
		</image>
		<g>
			<rect x="184.7" y="264.2" class="st6" width="68.1" height="91"/>
			<rect x="184.7" y="264.2" class="st7" width="68.1" height="91"/>
		</g>
	</g>
	<path class="st1" d="M253.2,297.4c0,0,2.7,6.1-15,4.2c0,0-0.7,17.7,15.5,27.3c0,0,2.2,1,5.2-3.9C261.8,320,267.2,307.7,253.2,297.4
		z"/>
	<g>
		<path d="M174.7,194.5c1-0.2,2-0.1,3,0.1c1,0.2,2,0.4,2.9,0.9c0.9,0.4,1.8,0.9,2.6,1.7c0.8,0.7,1.4,1.6,1.6,2.7
			c-0.7-0.7-1.5-1.2-2.3-1.7c-0.8-0.5-1.6-0.9-2.5-1.2C178.3,196,176.5,195.4,174.7,194.5z"/>
	</g>
	<g>
		<path d="M120.5,192.4c-1.9,0.7-3.7,1.1-5.4,1.8c-0.8,0.3-1.7,0.7-2.4,1.2c-0.7,0.5-1.3,1.2-1.9,2c-0.1-1,0.4-2.1,1.1-2.9
			c0.7-0.8,1.6-1.4,2.6-1.8c1-0.4,2-0.6,3-0.7C118.5,192.1,119.6,192.1,120.5,192.4z"/>
	</g>
	<path class="st8" d="M54.7,349.6c0,0,9.7-13,23.6,5.2l5.6,6.9l3.9-11.5L76,356.3C76,356.3,62.4,365.9,54.7,349.6z"/>
	<g>
		<path class="st9" d="M98.5,435.9c4.6,1.7,9.3,3.1,14,4.2c2.4,0.5,4.8,0.9,7.1,1.3c2.4,0.3,4.8,0.5,7.2,0.5c1.2,0,2.4,0,3.6-0.1
			l3.7-0.2c2.5-0.1,4.9-0.1,7.4-0.1c2.5,0.1,4.9,0.3,7.4,0.7c2.5,0.4,4.9,0.8,7.3,1.6l-0.3,0c2.7,0,5.4-0.2,8.1-0.4
			c2.7-0.2,5.4-0.5,8.1-0.9c2.7-0.4,5.4-0.9,8-1.7c2.6-0.8,5.2-1.7,7.5-3.1c-2.2,1.7-4.7,2.8-7.3,3.8c-2.6,1-5.3,1.7-8,2.2
			c-2.7,0.6-5.4,1-8.2,1.3c-2.8,0.3-5.5,0.5-8.3,0.6l-0.1,0l-0.2,0c-4.5-1.2-9.4-1.8-14.2-2c-2.4-0.1-4.8-0.1-7.2,0
			c-1.2,0.1-2.4,0.1-3.6,0.2c-1.2,0-2.5,0.1-3.7,0c-5-0.2-9.9-1.1-14.6-2.5c-2.4-0.7-4.7-1.5-7-2.3C103,438,100.7,437,98.5,435.9z"
			/>
	</g>
	<g>
		<polygon class="st10" points="212.1,315.3 207.8,311.7 203.6,315.3 203.6,294.6 212.1,294.6 		"/>
		<polygon class="st11" points="209.5,312.3 205.2,308.7 201,312.3 201,291.6 209.5,291.6 		"/>
		<g>
			
				<image style="overflow:visible;opacity:0.12;" width="99" height="100" xlink:href="76F175BAA9A9B71D.png"  transform="matrix(0.24 0 0 0.24 195.0033 278.5743)">
			</image>
			<g>
				<circle class="st11" cx="205.9" cy="289.6" r="8.8"/>
			</g>
		</g>
		<polygon class="st10" points="210.6,288.3 207.4,287.9 206,285 204.6,287.9 201.3,288.3 203.7,290.5 203.1,293.6 206,292.1 
			208.8,293.6 208.2,290.5 		"/>
	</g>
	<g>
		<polygon class="st12" points="234.4,339.6 229.7,335.6 225,339.6 225,316.7 234.4,316.7 		"/>
		<polygon class="st0" points="231.5,336.3 226.8,332.3 222.2,336.3 222.2,313.4 231.5,313.4 		"/>
		<g>
			
				<image style="overflow:visible;opacity:0.12;" width="108" height="108" xlink:href="76F175BAA9A9B723.png"  transform="matrix(0.24 0 0 0.24 215.6033 299.1343)">
			</image>
			<g>
				<circle class="st0" cx="227.5" cy="311.1" r="9.8"/>
			</g>
		</g>
		<polygon class="st13" points="232.8,309.7 229.2,309.2 227.6,306 226.1,309.2 222.5,309.7 225.1,312.1 224.4,315.6 227.6,313.9 
			230.8,315.6 230.1,312.1 		"/>
	</g>
	<g class="st14">
		<g>
			<line class="st15" x1="268.6" y1="190.2" x2="281" y2="192.2"/>
			<polyline class="st15" points="278.2,183.8 271.2,180.4 267.6,187.3 			"/>
			<polyline class="st15" points="282.1,195.5 278.5,202.4 271.5,199 			"/>
		</g>
		<g>
			<line class="st15" x1="158.5" y1="65.3" x2="154.5" y2="57.2"/>
			<polyline class="st15" points="150.7,62.3 151.6,67.9 157.2,67.1 			"/>
			<polyline class="st15" points="156,55.1 161.6,54.3 162.5,59.9 			"/>
		</g>
		<g>
			<line class="st15" x1="325.3" y1="48.7" x2="332.1" y2="42.7"/>
			<polyline class="st15" points="326.2,40.4 321.1,42.7 323.3,47.9 			"/>
			<polyline class="st15" points="334.5,43.6 336.7,48.8 331.6,51.1 			"/>
		</g>
		<path class="st15" d="M219.5,75.4c0-0.6,0-1.2-0.1-1.7l4.4-1.2l-1.4-5.1l-4.4,1.2c-0.5-0.9-1-1.8-1.7-2.6l2.9-3.6l-4.1-3.3
			l-2.9,3.6c-0.9-0.5-1.9-0.8-2.9-1.1l0.2-4.6l-5.3-0.2l-0.2,4.6c-1,0.2-2,0.4-3,0.8l-2.6-3.9l-4.4,2.9l2.5,3.8
			c-0.7,0.7-1.4,1.5-1.9,2.4l-4.3-1.6l-1.8,4.9l4.2,1.6c-0.1,0.6-0.2,1.1-0.3,1.7c0,0.5,0.1,0.9,0.1,1.4l-4.3,1.2l1.4,5.1l4.3-1.2
			c0.5,1,1.1,1.9,1.7,2.7l-2.7,3.4l4.1,3.3l2.7-3.4c1,0.5,2,0.9,3,1.2l-0.2,4.3l5.3,0.2l0.2-4.3c1.1-0.2,2.1-0.5,3.1-0.9l2.4,3.6
			l4.4-2.9l-2.4-3.7c0.8-0.8,1.4-1.6,2-2.5l4.1,1.6l1.9-4.9l-4.2-1.6C219.4,76.3,219.5,75.9,219.5,75.4z M205.8,79.2
			c-2.5-0.1-4.4-2.2-4.3-4.7c0.1-2.5,2.2-4.4,4.7-4.3c2.5,0.1,4.4,2.2,4.3,4.7C210.4,77.4,208.3,79.3,205.8,79.2z"/>
		<path class="st16" d="M225.3,111.2c0-0.4,0-0.8-0.1-1.2l3-0.8l-1-3.4l-3,0.8c-0.3-0.6-0.7-1.2-1.2-1.7l1.9-2.4l-2.8-2.2l-1.9,2.4
			c-0.6-0.3-1.3-0.6-1.9-0.7l0.1-3.1l-3.6-0.2l-0.1,3.1c-0.7,0.1-1.4,0.3-2,0.6l-1.7-2.6l-3,2l1.7,2.6c-0.5,0.5-0.9,1-1.3,1.6
			l-2.9-1.1l-1.2,3.3l2.9,1.1c-0.1,0.4-0.2,0.8-0.2,1.2c0,0.3,0,0.6,0.1,1l-2.9,0.8l0.9,3.4l2.9-0.8c0.3,0.7,0.7,1.3,1.2,1.8
			l-1.8,2.3l2.8,2.2l1.8-2.3c0.6,0.3,1.3,0.6,2.1,0.8l-0.1,2.9l3.6,0.2l0.1-2.9c0.7-0.1,1.4-0.3,2.1-0.6l1.6,2.4l3-2l-1.6-2.5
			c0.5-0.5,1-1.1,1.3-1.7l2.8,1l1.2-3.3l-2.8-1.1C225.3,111.9,225.3,111.6,225.3,111.2z M216.1,113.8c-1.7-0.1-3-1.5-2.9-3.1
			c0.1-1.7,1.5-3,3.1-2.9c1.7,0.1,3,1.5,2.9,3.1C219.2,112.6,217.8,113.9,216.1,113.8z"/>
		<g class="st17">
			<g>
				<line class="st15" x1="306.3" y1="125.1" x2="303.8" y2="128.5"/>
				<line class="st15" x1="316.5" y1="132.6" x2="314" y2="136"/>
				<line class="st15" x1="326.8" y1="140.2" x2="324.3" y2="143.6"/>
				
					<rect x="314.7" y="111.4" transform="matrix(0.5926 -0.8055 0.8055 0.5926 26.1226 309.6715)" class="st15" width="8.9" height="35.3"/>
				
					<rect x="322.5" y="110.2" transform="matrix(0.5926 -0.8055 0.8055 0.5926 37.8312 311.6326)" class="st15" width="8.9" height="16.4"/>
				
					<rect x="296.7" y="127.1" transform="matrix(0.5926 -0.8055 0.8055 0.5926 16.3132 296.3691)" class="st15" width="8.9" height="9.8"/>
				
					<rect x="306.9" y="134.7" transform="matrix(0.5926 -0.8055 0.8055 0.5926 14.4136 307.7108)" class="st15" width="8.9" height="9.8"/>
				
					<rect x="317.2" y="142.2" transform="matrix(0.5926 -0.8055 0.8055 0.5926 12.5142 319.0518)" class="st15" width="8.9" height="9.8"/>
				<line class="st15" x1="324.3" y1="122" x2="321.8" y2="125.4"/>
			</g>
			<line class="st15" x1="312.4" y1="123.7" x2="326.7" y2="134.3"/>
			<g>
				<path class="st15" d="M300.3,131.4c0.3-0.5,1-0.6,1.5-0.2c0.5,0.3,0.6,1,0.2,1.5c-0.3,0.5-1,0.6-1.5,0.2
					C300,132.6,299.9,131.9,300.3,131.4z"/>
			</g>
			<g>
				<path class="st15" d="M310.5,139c0.3-0.5,1-0.6,1.5-0.2c0.5,0.3,0.6,1,0.2,1.5c-0.3,0.5-1,0.6-1.5,0.2
					C310.3,140.1,310.2,139.5,310.5,139z"/>
			</g>
			<g>
				<path class="st15" d="M320.8,146.5c0.3-0.5,1-0.6,1.5-0.2c0.5,0.3,0.6,1,0.2,1.5c-0.3,0.5-1,0.6-1.5,0.2
					C320.6,147.7,320.5,147,320.8,146.5z"/>
			</g>
		</g>
		<g>
			<polygon class="st18" points="253,92.4 257.1,100.1 259.1,91.6 254.4,57.1 248.3,58 			"/>
			<polygon class="st18" points="253,92.4 257.1,100.1 259.1,91.6 254.4,57.1 248.3,58 			"/>
			<line class="st19" x1="257.1" y1="100.1" x2="257.4" y2="102.4"/>
			
				<rect x="247.9" y="52.2" transform="matrix(0.9909 -0.1346 0.1346 0.9909 -5.1014 34.2906)" class="st18" width="6.1" height="5.4"/>
			
				<rect x="248.6" y="57.6" transform="matrix(0.9909 -0.1346 0.1346 0.9909 -5.7631 34.4265)" class="st18" width="6.1" height="4.4"/>
			<polygon class="st18" points="259.1,91.6 253,92.4 257.1,100.1 			"/>
		</g>
		<path class="st20" d="M235,153.9l1.1-1.6l9.3,6.9l-1.1,1.6L235,153.9z M232.7,157l1.1-1.6l9.3,6.9l-1.1,1.6L232.7,157z M232,161.2
			l1.1-1.6l6.2,4.6l-1.1,1.6L232,161.2z M260.4,148.4l1.2-0.3c3.5-1.1,6.1-2.8,7.8-5.2c2.3-3.2,3.2-7,2.5-11.5c-0.6-4-2.6-7.3-6-9.8
			c-3.4-2.5-7.1-3.4-11.1-2.8c-4.5,0.7-7.9,2.6-10.2,5.8c-1.7,2.3-2.6,5.3-2.6,9l0,3.9c0.1,0.7,0,1.7-0.2,3
			c-0.4,3.3-1.5,6.3-3.3,8.8l1.6,1.1l8-10.9l1.5-8.5l1.6,1.2l-1.6,8.4l-8,10.9l3.1,2.3l8-10.9l7.6-4l1.6,1.2l-7.7,3.9l-8,10.9
			l1.6,1.1c1.8-2.5,4.3-4.4,7.4-5.8c1.2-0.5,2.8-1.1,4.9-1.8c0.1,0,0.2,0,0.2,0C260.3,148.4,260.3,148.3,260.4,148.4z M270.9,144
			c-2,2.7-4.9,4.6-8.8,5.9c-3.6,1.1-5.7,1.8-6.3,2.1c-2.6,1.1-5.2,3.4-7.6,6.7l-0.1,0.1l-12.4-9.1l0.1-0.1c2.3-3.2,3.7-6.3,4-9.3
			c0.1-1.3,0.2-3.5,0.2-6.6c0.1-4.1,1.1-7.5,3-10.2c2.8-3.8,6.5-6,11.2-6.6c4.7-0.7,9,0.4,12.8,3.2c3.8,2.8,6.1,6.6,6.9,11.3
			S273.7,140.3,270.9,144z"/>
		<g>
			
				<rect x="178.3" y="111.8" transform="matrix(0.3646 -0.9312 0.9312 0.3646 -10.7772 255.1537)" class="st21" width="6.4" height="47.4"/>
			<g>
				<line class="st22" x1="199.8" y1="142" x2="201" y2="138.9"/>
				<line class="st22" x1="197.1" y1="141" x2="198.4" y2="137.9"/>
				<line class="st22" x1="194.5" y1="139.9" x2="195.7" y2="136.8"/>
				<line class="st22" x1="191.8" y1="138.9" x2="193" y2="135.8"/>
				<line class="st22" x1="189.1" y1="137.8" x2="190.3" y2="134.7"/>
				<line class="st22" x1="186.5" y1="136.8" x2="187.7" y2="133.7"/>
				<line class="st22" x1="183.8" y1="135.7" x2="185" y2="132.6"/>
				<line class="st22" x1="180.9" y1="134.6" x2="182.1" y2="131.5"/>
				<line class="st22" x1="178.2" y1="133.5" x2="179.4" y2="130.4"/>
				<line class="st22" x1="175.8" y1="132.5" x2="177" y2="129.5"/>
				<line class="st22" x1="173.1" y1="131.5" x2="174.3" y2="128.4"/>
				<line class="st22" x1="170.4" y1="130.4" x2="171.7" y2="127.4"/>
				<line class="st22" x1="167.8" y1="129.4" x2="169" y2="126.3"/>
				<line class="st22" x1="165.1" y1="128.3" x2="166.3" y2="125.3"/>
				<line class="st22" x1="162.4" y1="127.3" x2="163.7" y2="124.2"/>
			</g>
		</g>
		<g class="st23">
			<circle class="st24" cx="299.6" cy="166.9" r="3.5"/>
			<circle class="st24" cx="321.7" cy="174.4" r="3.5"/>
			<circle class="st24" cx="313.4" cy="165" r="2.6"/>
			<circle class="st24" cx="310.6" cy="175.9" r="1.5"/>
			<circle class="st24" cx="301.9" cy="184.6" r="4.4"/>
			<polygon class="st25" points="313.4,165 310.6,175.9 299.6,166.9 300.7,185.3 322.6,174.8 			"/>
			<line class="st25" x1="299.6" y1="166.9" x2="313.4" y2="165"/>
			<polyline class="st25" points="322.6,174.8 310.6,175.9 300.7,185.3 			"/>
		</g>
		<g class="st26">
			<path d="M281.1,90.7l15.8-8.7l2,3.6l-1.1,0.6l-1.3-2.3L283,91.5l1.3,2.3l-1.1,0.6L281.1,90.7z"/>
			<path d="M303.7,94.3l-15.9,8.7l-2-3.6l1.1-0.6l1.3,2.3l13.7-7.5l-1.3-2.3l1.1-0.6L303.7,94.3z"/>
		</g>
		<polygon class="st18" points="222,39.6 216.7,36.6 216.7,30.6 221.9,27.6 227.1,30.5 227.1,36.5 		"/>
		<polygon class="st18" points="357,151 355.5,149.9 353.9,150.6 353.7,152.4 355.1,153.5 356.8,152.7 		"/>
		<line class="st18" x1="191.6" y1="29" x2="195.3" y2="36.2"/>
		<line class="st18" x1="285.1" y1="56" x2="282.1" y2="62.1"/>
		<line class="st18" x1="141.6" y1="98.1" x2="159.3" y2="101.4"/>
		<line class="st18" x1="243.8" y1="191.1" x2="245.2" y2="197.4"/>
		<line class="st18" x1="271.7" y1="157.2" x2="278.8" y2="158.7"/>
		<line class="st18" x1="335.3" y1="78.9" x2="329.2" y2="86.2"/>
		<line class="st18" x1="343.6" y1="175.1" x2="347.7" y2="179.6"/>
		<line class="st18" x1="372.1" y1="111.9" x2="365.6" y2="113.8"/>
		<line class="st18" x1="301.4" y1="214.1" x2="301.3" y2="219.3"/>
		<line class="st18" x1="200.6" y1="163.8" x2="203.8" y2="159.4"/>
		<line class="st18" x1="248.7" y1="17.4" x2="255.8" y2="30"/>
	</g>
</g>
</svg>
